<?xml version="1.0" encoding="UTF-8" standalone="no"?>
<!-- Created with Inkscape (http://www.inkscape.org/) -->

<svg
   xmlns:dc="http://purl.org/dc/elements/1.1/"
   xmlns:cc="http://creativecommons.org/ns#"
   xmlns:rdf="http://www.w3.org/1999/02/22-rdf-syntax-ns#"
   xmlns:svg="http://www.w3.org/2000/svg"
   xmlns="http://www.w3.org/2000/svg"
   xmlns:sodipodi="http://sodipodi.sourceforge.net/DTD/sodipodi-0.dtd"
   xmlns:inkscape="http://www.inkscape.org/namespaces/inkscape"
   width="48"
   height="48"
   id="svg5952"
   version="1.1"
   inkscape:version="0.48.1 r9760"
   inkscape:export-filename="ic_camera_white.png"
   inkscape:export-xdpi="90"
   inkscape:export-ydpi="90"
   sodipodi:docname="New document 5">
  <defs
     id="defs5954" />
  <sodipodi:namedview
     id="base"
     pagecolor="#ffffff"
     bordercolor="#666666"
     borderopacity="1.0"
     inkscape:pageopacity="0.0"
     inkscape:pageshadow="2"
     inkscape:zoom="5.6568542"
     inkscape:cx="31.759524"
     inkscape:cy="28.882251"
     inkscape:document-units="px"
     inkscape:current-layer="layer1"
     showgrid="false" />
  <metadata
     id="metadata5957">
    <rdf:RDF>
      <cc:Work
         rdf:about="">
        <dc:format>image/svg+xml</dc:format>
        <dc:type
           rdf:resource="http://purl.org/dc/dcmitype/StillImage" />
        <dc:title></dc:title>
      </cc:Work>
    </rdf:RDF>
  </metadata>
  <g
     inkscape:label="Layer 1"
     inkscape:groupmode="layer"
     id="layer1"
     transform="translate(0,-1004.3622)">
    <g
       transform="translate(-244.247,948.7447)"
       id="Camera"
       style="fill:#ffffff">
      <g
         id="g5553"
         style="fill:#ffffff">
        <g
           id="g5555"
           style="fill:#ffffff">
          <path
             style="fill:#ffffff"
             inkscape:connector-curvature="0"
             d="m 268.246,75.424 c -3.878,0 -7.031,3.155 -7.031,7.031 0,3.879 3.153,7.031 7.031,7.031 3.878,0 7.031,-3.152 7.031,-7.031 0,-3.876 -3.153,-7.031 -7.031,-7.031 z"
             id="path5557" />
          <path
             style="fill:#ffffff"
             inkscape:connector-curvature="0"
             d="m 288.871,66.584 h -13.125 v -2.058 c 0,-2.063 -1.688,-3.75 -3.75,-3.75 h -7.5 c -2.063,0 -3.75,1.687 -3.75,3.75 v 2.058 h -1.787 c -1.031,0 -2.636,0.364 -3.567,0.808 l -7.953,3.797 c -0.932,0.444 -1.692,1.651 -1.692,2.683 v 22.712 c 0,1.03 0.844,1.875 1.875,1.875 h 41.25 c 1.03,0 1.875,-0.845 1.875,-1.875 V 68.459 c -0.001,-1.031 -0.846,-1.875 -1.876,-1.875 z m -20.625,27.59 c -6.472,0 -11.719,-5.246 -11.719,-11.719 0,-6.472 5.247,-11.718 11.719,-11.718 6.472,0 11.719,5.246 11.719,11.718 0,6.473 -5.247,11.719 -11.719,11.719 z"
             id="path5559" />
        </g>
        <g
           id="g5561"
           style="fill:#ffffff">
          <polygon
             style="fill:#ffffff"
             points="254.184,62.71 246.684,62.71 246.684,68.432 254.181,64.854 254.184,64.853 "
             id="polygon5563" />
        </g>
      </g>
    </g>
  </g>
</svg>
