<?xml version="1.0" encoding="UTF-8" standalone="no"?>
<!-- Created with Inkscape (http://www.inkscape.org/) -->

<svg
   xmlns:dc="http://purl.org/dc/elements/1.1/"
   xmlns:cc="http://creativecommons.org/ns#"
   xmlns:rdf="http://www.w3.org/1999/02/22-rdf-syntax-ns#"
   xmlns:svg="http://www.w3.org/2000/svg"
   xmlns="http://www.w3.org/2000/svg"
   xmlns:sodipodi="http://sodipodi.sourceforge.net/DTD/sodipodi-0.dtd"
   xmlns:inkscape="http://www.inkscape.org/namespaces/inkscape"
   width="48"
   height="48"
   id="svg2874"
   version="1.1"
   inkscape:version="0.47 r22583"
   sodipodi:docname="warning.svg"
   inkscape:export-filename="/home/steve/p/Locast/res/drawable-mdpi/ic_warning.png"
   inkscape:export-xdpi="60"
   inkscape:export-ydpi="60">
  <defs
     id="defs2876">
    <inkscape:perspective
       sodipodi:type="inkscape:persp3d"
       inkscape:vp_x="0 : 526.18109 : 1"
       inkscape:vp_y="0 : 1000 : 0"
       inkscape:vp_z="744.09448 : 526.18109 : 1"
       inkscape:persp3d-origin="372.04724 : 350.78739 : 1"
       id="perspective2882" />
    <inkscape:perspective
       id="perspective2869"
       inkscape:persp3d-origin="0.5 : 0.33333333 : 1"
       inkscape:vp_z="1 : 0.5 : 1"
       inkscape:vp_y="0 : 1000 : 0"
       inkscape:vp_x="0 : 0.5 : 1"
       sodipodi:type="inkscape:persp3d" />
  </defs>
  <sodipodi:namedview
     id="base"
     pagecolor="#ffffff"
     bordercolor="#666666"
     borderopacity="1.0"
     inkscape:pageopacity="0.0"
     inkscape:pageshadow="2"
     inkscape:zoom="2.8"
     inkscape:cx="9.0513389"
     inkscape:cy="16.229907"
     inkscape:document-units="px"
     inkscape:current-layer="layer1"
     showgrid="false"
     showguides="false" />
  <metadata
     id="metadata2879">
    <rdf:RDF>
      <cc:Work
         rdf:about="">
        <dc:format>image/svg+xml</dc:format>
        <dc:type
           rdf:resource="http://purl.org/dc/dcmitype/StillImage" />
        <dc:title></dc:title>
      </cc:Work>
    </rdf:RDF>
  </metadata>
  <g
     inkscape:label="Layer 1"
     inkscape:groupmode="layer"
     id="layer1"
     transform="translate(-49.609375,-470.59209)">
    <path
       style="color:#000000;fill:#ff0000;fill-opacity:1;fill-rule:nonzero;stroke:none;stroke-width:1;marker:none;visibility:visible;display:inline;overflow:visible;enable-background:accumulate"
       d="m 73.61716,481.21932 c -1.12436,0 -2.09193,0.6659 -2.53286,1.62456 l -6.25429,10.82693 -5.7197,9.90306 c -0.32091,0.45419 -0.51384,1.00539 -0.51384,1.6038 0,1.53973 1.24746,2.78719 2.78719,2.78719 l 24.45143,0 c 1.53973,0 2.78719,-1.24746 2.78719,-2.78719 0,-0.86791 -0.29135,-1.22334 -0.68512,-1.90483 l -6.05187,-10.474 -5.74046,-9.95497 c -0.44138,-0.95755 -1.40412,-1.62456 -2.52767,-1.62456 z m -1.93598,7.36502 3.86158,0 0,6.1453 -0.55017,4.48441 -2.76643,0 -0.54498,-4.48441 0,-6.1453 z m 0,12.19717 3.86158,0 0,3.81486 -3.86158,0 0,-3.81486 z"
       id="path2823" />
  </g>
</svg>
